<svg xmlns="http://www.w3.org/2000/svg" viewBox="0 0 3000 3000"><defs><style>.cls-1{fill:#03a9f4;}.cls-2{fill:#4c4c4c;}.cls-3{fill:none;stroke:#094c72;stroke-miterlimit:10;stroke-width:60px;fill-rule:evenodd;}.cls-4{fill:#4f4f4f;}.cls-5{fill:#f4c3d3;}</style></defs><title>404</title><g id="Layer_2" data-name="Layer 2"><g id="Layer_1-2" data-name="Layer 1"><rect class="cls-1" x="40" y="40" width="2920" height="2920"/><path class="cls-2" d="M2920,80V2920H80V80H2920m80-80H0V3000H3000V0Z"/><path class="cls-3" d="M507.8,973.92c180.45,318.51,619.31,313.89,773.91-9.24"/><path class="cls-3" d="M1718.29,979.35c180.46,318.51,619.32,313.89,773.91-9.24"/><path class="cls-4" d="M1200,1712h600a300,300,0,0,1,300,300v0a0,0,0,0,1,0,0H900a0,0,0,0,1,0,0v0A300,300,0,0,1,1200,1712Z"/><path class="cls-5" d="M1081.31,1815H1917a0,0,0,0,1,0,0v208.18A417.82,417.82,0,0,1,1499.13,2441h0a417.82,417.82,0,0,1-417.82-417.82V1815A0,0,0,0,1,1081.31,1815Z"/></g></g></svg>